PathFileType	4	(X/Y/Z)	OpenSim_Sub06_CSBaseline_Magnet.trc
DataRate	CameraRate	NumFrames	NumMarkers	Units	OrigDataRate	OrigDataStartFrame	OrigNumFrames
100	100	40	8	m	100	1062	8492
Frame#	Time	torso_imu_offset_imu	pelvis_imu_offset_imu	tibia_r_imu_offset_imu	femur_r_imu_offset_imu	tibia_l_imu_offset_imu	femur_l_imu_offset_imu	toes_r_imu_offset_imu	toes_l_imu_offset_imu
				X1	Y1	Z1	X2	Y2	Z2	X3	Y3	Z3	X4	Y4	Z4	X5	Y5	Z5	X6	Y6	Z6	X7	Y7	Z7	X8		Y8	Z8	

1062	10.61000000	-0.94336836	-0.13577732	0.11243467	-0.48437058	0.17152304	-0.77890032	-0.16583203	-0.79419706	-0.19351966	-0.71420618	-0.41857164	0.08455892	-0.65871949	0.47147925	0.11163580	-0.44814422	0.14105554	0.46249249	-0.65347537	-0.58520221	-0.15366708	-0.71878688	-0.07709783	-0.42854295
1063	10.62000000	-0.93986490	-0.13485781	0.10158218	-0.49079773	0.18436534	-0.77696732	-0.14085199	-0.79642865	-0.19906811	-0.71598117	-0.40629803	0.07502476	-0.65510472	0.47940235	0.10050683	-0.44791287	0.15115843	0.45915475	-0.63585571	-0.60560524	-0.12449862	-0.72120522	-0.07884971	-0.42954307
1064	10.63000000	-0.93665661	-0.14126913	0.10258550	-0.48742649	0.18482918	-0.77695506	-0.12245998	-0.79887821	-0.20596992	-0.73043618	-0.38939345	0.07793727	-0.65041489	0.48686133	0.09937338	-0.44662877	0.16211376	0.47221896	-0.62492771	-0.62781385	-0.08946553	-0.71884088	-0.07920078	-0.42042751
1065	10.64000000	-0.94152803	-0.13982332	0.10767510	-0.48479829	0.19288879	-0.77492064	-0.11817137	-0.79490373	-0.21253288	-0.74000302	-0.38284093	0.07648328	-0.64835082	0.48515304	0.09692379	-0.44255001	0.17519965	0.47283087	-0.60476600	-0.65024907	-0.04741123	-0.71917070	-0.07895696	-0.42187634
1066	10.65000000	-0.93086335	-0.14133863	0.10366713	-0.48533419	0.19549350	-0.77714818	-0.10589706	-0.79394391	-0.22149493	-0.74444393	-0.36934503	0.07279937	-0.64359461	0.48621921	0.10526450	-0.43849202	0.18231718	0.47737345	-0.58251204	-0.66747359	-0.01732116	-0.71217320	-0.08118497	-0.41866933
1067	10.66000000	-0.93642748	-0.14344283	0.10311453	-0.48276113	0.20146613	-0.77748749	-0.10305916	-0.79895437	-0.22441837	-0.75458638	-0.35286670	0.07704819	-0.64781928	0.49742818	0.10893807	-0.43229962	0.18873740	0.47062555	-0.57511611	-0.67060203	-0.01679858	-0.72024586	-0.08278114	-0.40904359
1068	10.67000000	-0.93080977	-0.14778982	0.10368373	-0.48976633	0.20195902	-0.77810337	-0.09722315	-0.78857835	-0.22427306	-0.76610408	-0.33416814	0.06795108	-0.64813139	0.49615686	0.12453375	-0.42756237	0.19549603	0.47693559	-0.57229318	-0.66694326	-0.03309333	-0.71890279	-0.09375545	-0.41090620
1069	10.68000000	-0.93173890	-0.14757851	0.10131884	-0.47750271	0.20371805	-0.77064335	-0.09879893	-0.79238864	-0.23062272	-0.76942921	-0.32115953	0.06384744	-0.64880851	0.49595101	0.12784332	-0.42968998	0.20159328	0.47294890	-0.58248816	-0.65882062	-0.04461735	-0.71406790	-0.09449745	-0.40477226
1070	10.69000000	-0.93658697	-0.15581531	0.10382569	-0.48272229	0.20948881	-0.77985426	-0.09683166	-0.78469379	-0.23684897	-0.77156865	-0.30925765	0.06851553	-0.63760589	0.49353895	0.13194137	-0.42860716	0.21302301	0.47816415	-0.58350467	-0.65467077	-0.05106511	-0.71529060	-0.09833970	-0.40179644
1071	10.70000000	-0.93233461	-0.15820022	0.10223597	-0.48183223	0.22024273	-0.77235550	-0.10263701	-0.78379425	-0.25845477	-0.77769336	-0.29452081	0.05961725	-0.63923886	0.49952970	0.13392149	-0.41993860	0.20929138	0.48771804	-0.58894021	-0.64343467	-0.05529258	-0.72190607	-0.10134868	-0.40209778
1072	10.71000000	-0.93410340	-0.16409135	0.09796129	-0.48138364	0.22269832	-0.76854844	-0.10684553	-0.78072769	-0.27277560	-0.78669451	-0.28392669	0.05398355	-0.63542903	0.50425824	0.13846277	-0.41542214	0.21709310	0.49024962	-0.60194061	-0.62571074	-0.06377843	-0.72297885	-0.09932594	-0.39774143
1073	10.72000000	-0.92977275	-0.17039995	0.09754749	-0.48404746	0.22838760	-0.77597458	-0.11700281	-0.76826286	-0.28903059	-0.79117612	-0.27368322	0.04947138	-0.63493780	0.50863143	0.13389913	-0.41092359	0.22197980	0.49443271	-0.61067696	-0.60705355	-0.07393043	-0.72000443	-0.09898874	-0.39753774
1074	10.73000000	-0.93104596	-0.17735730	0.10231070	-0.47980325	0.23543486	-0.77442954	-0.13025307	-0.76117416	-0.29477014	-0.79947431	-0.26354495	0.03950694	-0.63346041	0.51277839	0.13785651	-0.40916841	0.22842125	0.49862404	-0.62541982	-0.59147569	-0.09274203	-0.72473807	-0.10104891	-0.39527641
1075	10.74000000	-0.93361068	-0.17365033	0.09890103	-0.48386984	0.23341011	-0.77245807	-0.13618671	-0.76107532	-0.29524413	-0.80329058	-0.24883008	0.04076905	-0.62895220	0.51978764	0.13324329	-0.40091878	0.23280384	0.50564300	-0.63309453	-0.56519197	-0.10915223	-0.71805967	-0.10340835	-0.39568036
1076	10.75000000	-0.93411650	-0.17661160	0.08941184	-0.48064491	0.23742926	-0.76277023	-0.15400694	-0.75902294	-0.28897511	-0.79703411	-0.24406568	0.03462149	-0.62854132	0.51783014	0.13737257	-0.39795843	0.24131747	0.50199747	-0.63776080	-0.54765169	-0.14032562	-0.72628690	-0.10349254	-0.38426096
1077	10.76000000	-0.92540174	-0.18556555	0.09609608	-0.47733704	0.23922021	-0.77139426	-0.17511854	-0.76104825	-0.28278403	-0.80016827	-0.23469311	0.02713021	-0.62743519	0.52354173	0.13710418	-0.40078783	0.24960534	0.49920552	-0.64217994	-0.53234701	-0.16158487	-0.72276558	-0.10371527	-0.38830663
1078	10.77000000	-0.92638020	-0.18598431	0.09061926	-0.48621176	0.24922095	-0.76637300	-0.19543715	-0.75565933	-0.26786480	-0.81176737	-0.21810712	0.02379777	-0.61815831	0.53054052	0.14528755	-0.39500941	0.26290910	0.49678631	-0.64766938	-0.50547464	-0.19709970	-0.72633239	-0.09953842	-0.38034609
1079	10.78000000	-0.93120598	-0.18972474	0.08763562	-0.48369293	0.25444279	-0.76094069	-0.23034259	-0.74926544	-0.25632256	-0.80867811	-0.21076530	0.02348965	-0.62232853	0.53317303	0.14203018	-0.39446419	0.26794133	0.49638532	-0.63986976	-0.49254142	-0.21881190	-0.73125791	-0.09869362	-0.37867018
1080	10.79000000	-0.92699127	-0.19232180	0.08781839	-0.47410749	0.25243042	-0.76482736	-0.26069207	-0.74343816	-0.24726859	-0.80783032	-0.20694684	0.01963889	-0.61417796	0.53306116	0.13878250	-0.39290218	0.27396880	0.49716686	-0.64210659	-0.46714518	-0.25144160	-0.73146611	-0.10362144	-0.38793729
1081	10.80000000	-0.92863176	-0.19396591	0.08811366	-0.47801827	0.25467464	-0.76798320	-0.28990428	-0.72950758	-0.24293038	-0.81440635	-0.19870747	0.00722649	-0.61537937	0.53700207	0.14118346	-0.38896333	0.28050383	0.48785419	-0.63915529	-0.43982166	-0.28149113	-0.73172113	-0.09727448	-0.38494887
1082	10.81000000	-0.92655689	-0.20242619	0.08404666	-0.47441577	0.25218568	-0.76514632	-0.32412339	-0.71675293	-0.24101598	-0.81287349	-0.19581541	0.01302230	-0.61430868	0.54188521	0.13668678	-0.38429957	0.28916254	0.49351177	-0.63549485	-0.41898412	-0.31283285	-0.73128147	-0.09917604	-0.37730932
1083	10.82000000	-0.92856409	-0.20258940	0.08365222	-0.47198776	0.26037469	-0.77229593	-0.34990474	-0.70423138	-0.24143690	-0.81617702	-0.19850438	0.01364983	-0.60921548	0.54156946	0.13593186	-0.38697517	0.29780881	0.49402098	-0.62809641	-0.39832691	-0.34076567	-0.73392701	-0.09303078	-0.37968080
1084	10.83000000	-0.92419341	-0.21072321	0.08254273	-0.47177516	0.25928439	-0.76879431	-0.38105333	-0.68997843	-0.24167581	-0.82148110	-0.19065197	0.01760677	-0.61173532	0.55019173	0.13999676	-0.38298883	0.30872056	0.49409907	-0.62158749	-0.37617548	-0.36281612	-0.73148742	-0.09262681	-0.37261980
1085	10.84000000	-0.92795496	-0.21314973	0.07582684	-0.47405916	0.25813083	-0.76369499	-0.41524978	-0.67357738	-0.24820922	-0.81516550	-0.18955526	0.01848385	-0.60779711	0.55067782	0.14245619	-0.38362997	0.31365874	0.48957786	-0.62446826	-0.34753102	-0.37760478	-0.73993748	-0.08843935	-0.38519827
1086	10.85000000	-0.92621428	-0.21755297	0.07571842	-0.47237284	0.26858155	-0.76333549	-0.44548172	-0.65115412	-0.25866378	-0.81895471	-0.19380738	0.01346833	-0.60309686	0.55497814	0.14254683	-0.37250257	0.31796899	0.49089835	-0.61689039	-0.32653182	-0.40024330	-0.74544890	-0.08843889	-0.38614266
1087	10.86000000	-0.92785505	-0.21583758	0.07330452	-0.47204885	0.26772203	-0.76805747	-0.47571878	-0.62623699	-0.25843038	-0.81343378	-0.19425469	0.01953140	-0.60075305	0.55302745	0.14168232	-0.37515046	0.32455125	0.49584971	-0.61903126	-0.30240721	-0.42019503	-0.74138517	-0.08437762	-0.39258111
1088	10.87000000	-0.93038838	-0.21546594	0.07535986	-0.47386544	0.26295138	-0.76635959	-0.50027061	-0.60293625	-0.25054938	-0.81077643	-0.19372170	0.02703989	-0.59872735	0.55690252	0.15273691	-0.35792122	0.32687875	0.49176010	-0.61577967	-0.27603552	-0.43544726	-0.73921951	-0.07784540	-0.39124908
1089	10.88000000	-0.92841212	-0.21735846	0.07194952	-0.47640131	0.26522353	-0.76335491	-0.52330653	-0.58379471	-0.24415810	-0.81062856	-0.19985958	0.02568540	-0.59456528	0.56097138	0.14914163	-0.36166877	0.33527172	0.49487602	-0.62028346	-0.24572720	-0.44683554	-0.73699504	-0.07108277	-0.39214896
1090	10.89000000	-0.92387264	-0.22184669	0.06688183	-0.47647985	0.26245935	-0.77015626	-0.55348090	-0.56695680	-0.23839528	-0.80871572	-0.20132894	0.01920177	-0.59253051	0.57198779	0.14583877	-0.35182519	0.33809165	0.50280850	-0.61774563	-0.21826473	-0.45696119	-0.74114298	-0.06832262	-0.40542468
1091	10.90000000	-0.92361821	-0.21968246	0.07093578	-0.47466300	0.27314357	-0.76518648	-0.56967458	-0.55252177	-0.22623239	-0.80574622	-0.21579211	0.01634672	-0.58841720	0.57460927	0.14540932	-0.35077285	0.34419104	0.48999044	-0.61372460	-0.20086702	-0.47430008	-0.74407133	-0.06870628	-0.41066359
1092	10.91000000	-0.92572663	-0.22390217	0.06985449	-0.47603779	0.26400012	-0.75422176	-0.58659555	-0.53757416	-0.21048542	-0.81001866	-0.21682878	0.02534856	-0.58217831	0.58115811	0.14732242	-0.34979060	0.35244287	0.49234143	-0.61212801	-0.18661743	-0.47728776	-0.74160171	-0.06042339	-0.41574818
1093	10.92000000	-0.92396584	-0.22200020	0.06486961	-0.48002996	0.26082052	-0.76096365	-0.60203881	-0.52885911	-0.20753160	-0.80439536	-0.22210920	0.02411521	-0.57283706	0.57965832	0.14747368	-0.34275638	0.36378793	0.50007560	-0.60808512	-0.17166112	-0.48764141	-0.75053489	-0.05132267	-0.40886100
1094	10.93000000	-0.92122805	-0.22557961	0.06679182	-0.48690981	0.25849632	-0.75474986	-0.61291295	-0.51883073	-0.21003637	-0.79988795	-0.22847944	0.02611065	-0.57207188	0.58079725	0.14897066	-0.34763580	0.36642108	0.49201253	-0.60675667	-0.16535725	-0.48806668	-0.75144336	-0.04854923	-0.42096058
1095	10.94000000	-0.92538912	-0.22821798	0.06755878	-0.48323617	0.26258724	-0.75611231	-0.62412058	-0.50455721	-0.21066875	-0.79458852	-0.23291017	0.02818470	-0.57105600	0.59150404	0.15338156	-0.33700940	0.37259872	0.48628367	-0.59432881	-0.15325828	-0.50016274	-0.75553017	-0.04456665	-0.42703207
1096	10.95000000	-0.92190312	-0.22825269	0.06099904	-0.48453542	0.26135409	-0.75871863	-0.62938642	-0.48948222	-0.21293209	-0.80318102	-0.23488890	0.03752207	-0.56016224	0.59875244	0.14867498	-0.34084849	0.37880135	0.48859203	-0.59784490	-0.14630083	-0.50334945	-0.76028023	-0.03646388	-0.42674914
1097	10.96000000	-0.92082746	-0.22839506	0.06048124	-0.48663444	0.25473467	-0.75864922	-0.63159777	-0.48460516	-0.22203440	-0.79317441	-0.24277381	0.03809861	-0.55581705	0.60699421	0.15027103	-0.33378166	0.38817820	0.48420415	-0.59573489	-0.14723458	-0.50241553	-0.76519673	-0.02532118	-0.43118194
1098	10.97000000	-0.92934252	-0.22619144	0.06036458	-0.48882964	0.25290589	-0.75649683	-0.63569808	-0.47668135	-0.22304542	-0.79628582	-0.24792932	0.04489152	-0.54531684	0.61852563	0.14351436	-0.32842267	0.38851570	0.48407044	-0.60813473	-0.16150859	-0.47729607	-0.76957543	-0.02013012	-0.42946224
1099	10.98000000	-0.92844438	-0.22620077	0.06134244	-0.49045598	0.24067230	-0.75327127	-0.64292408	-0.47165220	-0.22463107	-0.79151670	-0.24520373	0.04539285	-0.53898353	0.62075135	0.14054859	-0.33018811	0.39440968	0.47945889	-0.62424501	-0.16799187	-0.44982365	-0.78028461	-0.01852221	-0.42747472
1100	10.99000000	-0.92156740	-0.22385004	0.04793654	-0.49461590	0.23941805	-0.75787737	-0.63327323	-0.47533472	-0.23524787	-0.78553025	-0.25545433	0.04954972	-0.52335319	0.63317877	0.13591077	-0.33308787	0.39713707	0.48152209	-0.61896973	-0.18463778	-0.45925543	-0.79443892	-0.00780545	-0.41916350
1101	11	-0.92524227	-0.22618029	0.05340333	-0.49897154	0.23996607	-0.75402151	-0.62449272	-0.48110958	-0.24077967	-0.79409099	-0.25406012	0.05666508	-0.52137854	0.64415989	0.12606191	-0.32905928	0.39902170	0.47796864	-0.61058607	-0.17781760	-0.47473904	-0.79963365	-0.00700355	-0.41023819
